<svg width="422" height="305" viewBox="0 0 422 305" fill="none" xmlns="http://www.w3.org/2000/svg">
<path fill-rule="evenodd" clip-rule="evenodd" d="M175.138 71.6338C176.237 69.6431 177.334 67.6523 178.431 65.66L179.912 62.9716C183.078 57.2304 189.112 53.6636 195.665 53.6636H208.404H295.594C295.74 53.6636 295.836 53.5072 295.765 53.376C291.723 46.0448 287.682 38.7123 283.642 31.3798C279.599 24.044 275.557 16.7082 271.513 9.37359C268.327 3.59203 262.247 0 255.649 0H166.241C159.698 0 153.674 3.56176 150.513 9.29287C143.158 22.6379 135.804 35.9841 128.449 49.3304C121.104 62.6595 113.759 75.9886 106.414 89.3165C106.343 89.4477 106.434 89.6041 106.585 89.6041H154.636C161.175 89.6041 167.194 86.0473 170.349 80.3162C171.321 78.5578 172.292 76.7975 173.262 75.0364C173.887 73.9024 174.512 72.7681 175.138 71.6338ZM218.038 137.468C216.924 139.49 215.811 141.51 214.696 143.53C213.665 145.399 212.637 147.267 211.609 149.135L211.597 149.155L209.897 152.243C206.751 157.954 200.748 161.5 194.235 161.5H66.6712C66.6676 161.5 66.6646 161.5 66.6621 161.498C66.6605 161.497 66.6591 161.496 66.658 161.495C66.6537 161.489 66.653 161.481 66.6561 161.475L81.4812 134.572L96.3528 107.585C96.3578 107.58 96.3629 107.574 96.3679 107.574H155.338H168.213C174.685 107.574 180.644 104.053 183.769 98.3825L188.604 89.6042C189.4 88.1563 190.198 86.7084 190.996 85.2605C191.793 83.8126 192.591 82.3647 193.388 80.9168C196.543 75.1856 202.562 71.6289 209.101 71.6289H305.823C305.828 71.6289 305.833 71.634 305.838 71.639C310.743 80.5392 315.648 89.4381 320.552 98.337L320.692 98.5906C325.641 107.57 330.591 116.549 335.54 125.53C335.542 125.534 335.542 125.539 335.541 125.543C335.54 125.547 335.537 125.551 335.532 125.553C335.53 125.554 335.527 125.555 335.525 125.555H247.967H235.072C228.614 125.555 222.666 129.071 219.546 134.732L218.038 137.468ZM258.879 206.401C258.088 207.837 257.296 209.274 256.504 210.71C255.716 212.139 254.927 213.568 254.141 214.997C252.502 217.969 250.864 220.94 249.226 223.917C246.15 229.502 240.278 232.973 233.901 232.973H27.284C27.2775 232.973 27.2728 232.97 27.27 232.966C27.2664 232.961 27.266 232.953 27.2688 232.947C32.0788 224.219 36.8888 215.49 41.6987 206.761L41.9988 206.217L42.2881 205.691C47.1016 196.956 51.9151 188.22 56.7286 179.486C56.7337 179.481 56.7387 179.476 56.7438 179.476H194.888H207.723C214.221 179.476 220.204 175.944 223.34 170.248L225.742 165.891L228.159 161.505L233.003 152.712C236.124 147.046 242.072 143.53 248.535 143.53H345.439C345.444 143.53 345.449 143.535 345.454 143.54C350.426 152.563 355.4 161.588 360.374 170.612L374.919 197.002C374.924 197.012 374.919 197.027 374.904 197.027H287.406H274.738C268.145 197.027 262.065 200.619 258.879 206.401ZM384.845 215.007C396.48 236.111 408.109 257.214 419.739 278.317C426.348 290.309 417.677 305 403.991 305L17.9687 304.97C4.31258 304.965 -4.33782 290.304 2.25585 278.337C4.77132 273.772 7.2868 269.207 9.80227 264.643C12.3177 260.078 14.8332 255.514 17.3487 250.948C17.3537 250.943 17.3588 250.938 17.3638 250.938H234.335H247.316C253.723 250.938 259.616 247.452 262.711 241.842C263.528 240.359 264.346 238.875 265.164 237.391C265.976 235.916 266.789 234.441 267.601 232.968L272.259 224.512C275.495 218.645 281.66 214.997 288.36 214.997H384.83C384.835 214.997 384.84 215.002 384.845 215.007Z" fill="white"/>
</svg>
